<?xml version="1.0" standalone="no"?><svg xmlns="http://www.w3.org/2000/svg" viewBox="0 0 1440 320"><path fill="#e31728" fill-opacity="1" d="M0,64L6.9,53.3C13.7,43,27,21,41,64C54.9,107,69,213,82,229.3C96,245,110,171,123,122.7C137.1,75,151,53,165,80C178.3,107,192,181,206,213.3C219.4,245,233,235,247,240C260.6,245,274,267,288,256C301.7,245,315,203,329,208C342.9,213,357,267,370,256C384,245,398,171,411,165.3C425.1,160,439,224,453,256C466.3,288,480,288,494,245.3C507.4,203,521,117,535,112C548.6,107,562,181,576,229.3C589.7,277,603,299,617,266.7C630.9,235,645,149,658,112C672,75,686,85,699,96C713.1,107,727,117,741,138.7C754.3,160,768,192,782,181.3C795.4,171,809,117,823,106.7C836.6,96,850,128,864,154.7C877.7,181,891,203,905,213.3C918.9,224,933,224,946,208C960,192,974,160,987,170.7C1001.1,181,1015,235,1029,250.7C1042.3,267,1056,245,1070,250.7C1083.4,256,1097,288,1111,256C1124.6,224,1138,128,1152,90.7C1165.7,53,1179,75,1193,80C1206.9,85,1221,75,1234,64C1248,53,1262,43,1275,32C1289.1,21,1303,11,1317,48C1330.3,85,1344,171,1358,218.7C1371.4,267,1385,277,1399,282.7C1412.6,288,1426,288,1433,288L1440,288L1440,320L1433.1,320C1426.3,320,1413,320,1399,320C1385.1,320,1371,320,1358,320C1344,320,1330,320,1317,320C1302.9,320,1289,320,1275,320C1261.7,320,1248,320,1234,320C1220.6,320,1207,320,1193,320C1179.4,320,1166,320,1152,320C1138.3,320,1125,320,1111,320C1097.1,320,1083,320,1070,320C1056,320,1042,320,1029,320C1014.9,320,1001,320,987,320C973.7,320,960,320,946,320C932.6,320,919,320,905,320C891.4,320,878,320,864,320C850.3,320,837,320,823,320C809.1,320,795,320,782,320C768,320,754,320,741,320C726.9,320,713,320,699,320C685.7,320,672,320,658,320C644.6,320,631,320,617,320C603.4,320,590,320,576,320C562.3,320,549,320,535,320C521.1,320,507,320,494,320C480,320,466,320,453,320C438.9,320,425,320,411,320C397.7,320,384,320,370,320C356.6,320,343,320,329,320C315.4,320,302,320,288,320C274.3,320,261,320,247,320C233.1,320,219,320,206,320C192,320,178,320,165,320C150.9,320,137,320,123,320C109.7,320,96,320,82,320C68.6,320,55,320,41,320C27.4,320,14,320,7,320L0,320Z"></path></svg>