<?xml version="1.0" standalone="no"?><svg xmlns="http://www.w3.org/2000/svg" viewBox="0 0 1440 320"><path fill="#e31728" fill-opacity="1" d="M0,320L11.4,304C22.9,288,46,256,69,245.3C91.4,235,114,245,137,213.3C160,181,183,107,206,69.3C228.6,32,251,32,274,58.7C297.1,85,320,139,343,176C365.7,213,389,235,411,229.3C434.3,224,457,192,480,176C502.9,160,526,160,549,170.7C571.4,181,594,203,617,192C640,181,663,139,686,117.3C708.6,96,731,96,754,117.3C777.1,139,800,181,823,213.3C845.7,245,869,267,891,261.3C914.3,256,937,224,960,192C982.9,160,1006,128,1029,138.7C1051.4,149,1074,203,1097,218.7C1120,235,1143,213,1166,208C1188.6,203,1211,213,1234,186.7C1257.1,160,1280,96,1303,58.7C1325.7,21,1349,11,1371,26.7C1394.3,43,1417,85,1429,106.7L1440,128L1440,320L1428.6,320C1417.1,320,1394,320,1371,320C1348.6,320,1326,320,1303,320C1280,320,1257,320,1234,320C1211.4,320,1189,320,1166,320C1142.9,320,1120,320,1097,320C1074.3,320,1051,320,1029,320C1005.7,320,983,320,960,320C937.1,320,914,320,891,320C868.6,320,846,320,823,320C800,320,777,320,754,320C731.4,320,709,320,686,320C662.9,320,640,320,617,320C594.3,320,571,320,549,320C525.7,320,503,320,480,320C457.1,320,434,320,411,320C388.6,320,366,320,343,320C320,320,297,320,274,320C251.4,320,229,320,206,320C182.9,320,160,320,137,320C114.3,320,91,320,69,320C45.7,320,23,320,11,320L0,320Z"></path></svg>