<?xml version="1.0" standalone="no"?><svg xmlns="http://www.w3.org/2000/svg" viewBox="0 0 1440 320"><path fill="#e31728" fill-opacity="1" d="M0,192L15,170.7C30,149,60,107,90,85.3C120,64,150,64,180,85.3C210,107,240,149,270,170.7C300,192,330,192,360,165.3C390,139,420,85,450,101.3C480,117,510,203,540,245.3C570,288,600,288,630,240C660,192,690,96,720,101.3C750,107,780,213,810,218.7C840,224,870,128,900,122.7C930,117,960,203,990,208C1020,213,1050,139,1080,101.3C1110,64,1140,64,1170,96C1200,128,1230,192,1260,197.3C1290,203,1320,149,1350,149.3C1380,149,1410,203,1425,229.3L1440,256L1440,320L1425,320C1410,320,1380,320,1350,320C1320,320,1290,320,1260,320C1230,320,1200,320,1170,320C1140,320,1110,320,1080,320C1050,320,1020,320,990,320C960,320,930,320,900,320C870,320,840,320,810,320C780,320,750,320,720,320C690,320,660,320,630,320C600,320,570,320,540,320C510,320,480,320,450,320C420,320,390,320,360,320C330,320,300,320,270,320C240,320,210,320,180,320C150,320,120,320,90,320C60,320,30,320,15,320L0,320Z"></path></svg>